<?xml version="1.0" encoding="UTF-8" standalone="no"?>
<!DOCTYPE svg PUBLIC "-//W3C//DTD SVG 1.1//EN" "http://www.w3.org/Graphics/SVG/1.1/DTD/svg11.dtd">
<svg xmlns="http://www.w3.org/2000/svg" version="1.1" viewBox="0.00 0.00 670.00 373.00">
<path fill="#ffffff" d="
  M 379.03 149.01
  A 0.24 0.23 83.9 0 0 378.85 149.24
  Q 378.94 182.99 378.75 216.78
  Q 378.72 222.07 377.94 227.66
  C 377.27 232.47 376.87 237.51 375.53 242.00
  Q 373.63 248.37 370.99 254.46
  C 370.26 256.16 368.84 258.23 367.94 260.24
  Q 367.27 261.73 366.76 262.56
  C 357.50 277.44 343.31 289.22 326.40 294.21
  C 317.56 296.82 309.16 298.87 300.50 297.51
  C 294.36 296.55 290.98 296.63 285.46 294.08
  C 284.49 293.63 283.33 293.77 282.23 293.26
  C 270.28 287.65 261.80 281.65 253.84 271.52
  C 249.43 265.91 245.29 257.90 243.45 251.01
  Q 242.49 247.44 241.84 245.53
  Q 240.44 241.47 240.38 240.01
  C 240.25 236.56 239.34 233.01 239.24 229.96
  C 238.19 197.28 258.62 168.61 289.86 159.28
  C 295.89 157.47 303.09 156.39 309.74 155.39
  Q 312.82 154.93 315.21 155.68
  A 1.40 1.40 0.0 0 1 316.18 157.00
  Q 316.31 174.00 316.22 189.75
  Q 316.21 191.21 314.49 192.01
  C 307.93 195.06 301.40 195.10 294.20 198.16
  C 285.80 201.72 275.46 208.97 274.74 219.05
  Q 274.48 222.56 274.23 226.07
  C 274.04 228.65 274.68 231.15 274.80 233.81
  C 274.94 236.89 276.23 240.94 277.82 243.51
  Q 287.81 259.63 306.27 261.97
  C 318.13 263.48 330.71 254.76 336.36 244.71
  Q 338.87 240.23 340.11 232.81
  Q 342.20 220.21 342.20 209.00
  Q 342.19 142.81 342.18 75.33
  Q 342.18 74.58 342.75 74.58
  L 377.97 74.62
  A 0.47 0.47 0.0 0 1 378.44 75.05
  C 380.82 98.35 390.61 113.71 411.78 123.80
  C 416.89 126.23 423.18 127.15 428.79 127.25
  C 431.44 127.30 431.06 129.23 431.06 131.18
  Q 431.04 144.42 431.03 157.66
  C 431.03 160.70 429.89 163.19 426.49 162.72
  Q 420.97 161.96 417.41 161.77
  C 413.88 161.58 410.90 160.32 407.42 159.85
  Q 403.60 159.34 401.25 158.47
  C 398.31 157.39 395.56 156.46 392.70 154.99
  Q 388.06 152.62 383.25 150.63
  A 2.01 1.87 -6.9 0 1 382.47 150.06
  Q 381.14 148.44 379.03 149.01
  Z"
/>
</svg>
